# File created by Blade
# Date/Time:  Wed Sep 24 20:21:23 2014
# Frame Rate: 120.000 fps
#------------------------------------------------------
:FULLY-SPECIFIED
:DEGREES
1051
root -2.172580 32.731253 -4.952181 12.375907 2.120554 -1.033463
Spine -5.932533 4.042622 0.338374
Head -7.221305 -3.793436 9.451460
LeftShoulder -6.025258 16.751992 11.951484
LeftArm 26.066731 34.310175 -77.022709
LeftForeArm 3.689283 -0.000000 32.554772
LeftHand -26.908756 -0.000000 8.895668
LeftHandThumb1 -26.253704 0.000000 33.147579
RightShoulder -17.847596 13.219699 -25.720434
RightArm -7.451898 -37.282888 95.588864
RightForeArm -25.075121 -0.000000 45.274808
RightHand -6.476555 -0.000000 -5.021272
RightHandThumb1 -24.326973 -0.000000 -32.862282
LeftUpLeg -8.176042 13.339141 -1.206157
LeftLeg -1.872545 -0.000000 0.000000
LeftFoot -11.190739 5.641392 -17.403999
LeftToeBase 7.833340 -0.000000 -0.000000
RightUpLeg -9.913046 -5.408295 -1.802958
RightLeg 2.625312 -0.000000 -0.000000
RightFoot -8.869140 -5.678702 -4.578360
RightToeBase -1.675219 -0.000000 0.000000
1052
root -2.185645 32.734416 -4.973423 12.432295 2.050882 -1.078657
Spine -5.846189 4.137613 0.228018
Head -7.386504 -3.750955 9.496022
LeftShoulder -5.996327 16.710885 12.116245
LeftArm 26.029682 34.052662 -77.130414
LeftForeArm 3.396551 -0.000000 33.174128
LeftHand -26.882403 -0.000000 8.860382
LeftHandThumb1 -26.253704 0.000000 33.147579
RightShoulder -17.794365 13.264854 -25.698357
RightArm -7.493320 -37.609534 95.860260
RightForeArm -25.068640 -0.000000 45.463772
RightHand -6.488182 -0.000000 -4.870042
RightHandThumb1 -24.326973 -0.000000 -32.862282
LeftUpLeg -8.260970 13.446655 -1.187231
LeftLeg -1.897796 -0.000000 0.000000
LeftFoot -11.143487 5.654272 -17.372393
LeftToeBase 7.847858 -0.000000 -0.000000
RightUpLeg -10.013365 -5.424719 -1.727496
RightLeg 2.602423 -0.000000 -0.000000
RightFoot -8.800670 -5.594449 -4.605722
RightToeBase -1.650154 -0.000000 0.000000
1053
root -2.203385 32.738653 -5.001990 12.531125 2.022336 -1.156524
Spine -5.799821 4.190320 0.177190
Head -7.575181 -3.720765 9.503065
LeftShoulder -5.946367 16.669587 12.283404
LeftArm 25.951835 33.770856 -77.282807
LeftForeArm 3.288901 0.000000 33.768565
LeftHand -26.700475 -0.000000 8.401258
LeftHandThumb1 -26.253704 0.000000 33.147579
RightShoulder -17.733792 13.353757 -25.674385
RightArm -7.597814 -37.917929 96.151583
RightForeArm -25.195578 -0.000000 45.606235
RightHand -6.386969 -0.000000 -4.770539
RightHandThumb1 -24.326973 -0.000000 -32.862282
LeftUpLeg -8.429531 13.485169 -1.126615
LeftLeg -1.874225 -0.000000 0.000000
LeftFoot -11.114894 5.681048 -17.342647
LeftToeBase 7.832750 -0.000000 -0.000000
RightUpLeg -10.176407 -5.470000 -1.594389
RightLeg 2.596957 -0.000000 -0.000000
RightFoot -8.711569 -5.517173 -4.593549
RightToeBase -1.602208 -0.000000 0.000000
1054
root -2.219230 32.742243 -5.025031 12.616781 1.959060 -1.209309
Spine -5.753864 4.270689 0.081856
Head -7.776518 -3.666038 9.540588
LeftShoulder -5.895202 16.611656 12.466067
LeftArm 25.849844 33.509589 -77.452697
LeftForeArm 3.095299 -0.000000 34.306922
LeftHand -26.599926 -0.000000 8.357164
LeftHandThumb1 -26.253704 0.000000 33.147579
RightShoulder -17.716326 13.393388 -25.631659
RightArm -7.673843 -38.289503 96.434467
RightForeArm -25.264108 -0.000000 45.691125
RightHand -6.330550 -0.000000 -4.893397
RightHandThumb1 -24.326973 -0.000000 -32.862282
LeftUpLeg -8.556782 13.550160 -1.094945
LeftLeg -1.882022 -0.000000 0.000000
LeftFoot -11.070724 5.724507 -17.300816
LeftToeBase 7.812471 -0.000000 -0.000000
RightUpLeg -10.320046 -5.533603 -1.497915
RightLeg 2.592849 -0.000000 -0.000000
RightFoot -8.628387 -5.364411 -4.587289
RightToeBase -1.685252 -0.000000 0.000000
1055
root -2.235392 32.745800 -5.047949 12.708348 1.888670 -1.261935
Spine -5.718479 4.344267 -0.017709
Head -7.983348 -3.587989 9.601592
LeftShoulder -5.862152 16.565756 12.643395
LeftArm 25.775402 33.288819 -77.594383
LeftForeArm 2.887747 0.000000 34.827552
LeftHand -26.701420 -0.000000 8.351788
LeftHandThumb1 -26.253704 0.000000 33.147579
RightShoulder -17.682194 13.429850 -25.568374
RightArm -7.750266 -38.572139 96.717357
RightForeArm -25.367987 -0.000000 45.725031
RightHand -6.326687 -0.000000 -4.682118
RightHandThumb1 -24.326973 -0.000000 -32.862282
LeftUpLeg -8.691189 13.614862 -1.063382
LeftLeg -1.885296 -0.000000 0.000000
LeftFoot -11.034278 5.772795 -17.265066
LeftToeBase 7.761561 -0.000000 -0.000000
RightUpLeg -10.466897 -5.560789 -1.400774
RightLeg 2.585438 -0.000000 -0.000000
RightFoot -8.546209 -5.286201 -4.630420
RightToeBase -1.720053 -0.000000 0.000000
1056
root -2.251812 32.749195 -5.068494 12.789061 1.824736 -1.302678
Spine -5.674320 4.409238 -0.127357
Head -8.188809 -3.538691 9.636887
LeftShoulder -5.846464 16.474627 12.814828
LeftArm 25.699927 33.155414 -77.694312
LeftForeArm 2.688000 0.000000 35.250709
LeftHand -26.658288 0.000000 8.093890
LeftHandThumb1 -26.253704 0.000000 33.147579
RightShoulder -17.676159 13.459659 -25.495132
RightArm -7.857807 -38.799723 97.038744
RightForeArm -25.530952 -0.000000 45.687432
RightHand -6.298161 0.000000 -4.576325
RightHandThumb1 -24.326973 -0.000000 -32.862282
LeftUpLeg -8.809580 13.628392 -1.029229
LeftLeg -1.878793 -0.000000 0.000000
LeftFoot -11.016269 5.837601 -17.265511
LeftToeBase 7.789480 -0.000000 -0.000000
RightUpLeg -10.573007 -5.537999 -1.332436
RightLeg 2.532530 -0.000000 -0.000000
RightFoot -8.459992 -5.197540 -4.625429
RightToeBase -1.751769 -0.000000 0.000000
